{"title":"Geordie Shore S08E07 WEB-DL ","uid":10983731,"size":463438038,"categoryP":"video","categoryS":"tv_shows","magnet":"?xt=urn:btih:4485b74c25c2ff31d782c0a988646b9cd9267249&amp;dn=Geordie+Shore+S08E07+WEB-DL+&amp;tr=udp%3A%2F%2Ftracker.openbittorrent.com%3A80&amp;tr=udp%3A%2F%2Fopen.demonii.com%3A1337&amp;tr=udp%3A%2F%2Ftracker.coppersurfer.tk%3A6969&amp;tr=udp%3A%2F%2Fexodus.desync.com%3A6969","seeders":1,"leechers":0,"uploader":"jmanwf","files":-1,"time":1409893417,"description":"Aaron joins the crew, and Marnie promises to stay away from the boys\n\n\n\n\n\nFormat                                   : MPEG-4\nFormat profile                           : Base Media / Version 2\nCodec ID                                 : mp42\nFile size                                : 442 MiB\nDuration                                 : 42mn 12s\nOverall bit rate mode                    : Variable\nOverall bit rate                         : 1 464 Kbps\nEncoded date                             : UTC 2014-09-04 12:48:05\nTagged date                              : UTC 2014-09-04 13:28:17\nWriting application                      : HandBrake 0.9.9 2013052900\n\nVideo\nID                                       : 1\nFormat                                   : AVC\nFormat/Info                              : Advanced Video Codec\nFormat profile                           : &lt;a class=&quot;__cf_email__&quot; href=&quot;/cdn-cgi/l/email-protection&quot; data-cfemail=&quot;6429050d0a2428504a54&quot;&gt;[email&amp;#160;protected]&lt;/a&gt;&lt;script cf-hash='f9e31' type=&quot;text/javascript&quot;&gt;\n/* &lt;![CDATA[ */!function(){try{var t=&quot;currentScript&quot;in document?document.currentScript:function(){for(var t=document.getElementsByTagName(&quot;script&quot;),e=t.length;e--;)if(t[e].getAttribute(&quot;cf-hash&quot;))return t[e]}();if(t&amp;&amp;t.previousSibling){var e,r,n,i,c=t.previousSibling,a=c.getAttribute(&quot;data-cfemail&quot;);if(a){for(e=&quot;&quot;,r=parseInt(a.substr(0,2),16),n=2;a.length-n;n+=2)i=parseInt(a.substr(n,2),16)^r,e+=String.fromCharCode(i);e=document.createTextNode(e),c.parentNode.replaceChild(e,c)}}}catch(u){}}();/* ]]&gt; */&lt;/script&gt;\nFormat settings, CABAC                   : Yes\nFormat settings, ReFrames                : 5 frames\nCodec ID                                 : avc1\nCodec ID/Info                            : Advanced Video Coding\nDuration                                 : 42mn 12s\nBit rate                                 : 1 299 Kbps\nWidth                                    : 852 pixels\nHeight                                   : 480 pixels\nDisplay aspect ratio                     : 16:9\nFrame rate mode                          : Variable\nFrame rate                               : 25.000 fps\nMinimum frame rate                       : 12.502 fps\nMaximum frame rate                       : 25.007 fps\nColor space                              : YUV\nChroma subsampling                       : 4:2:0\nBit depth                                : 8 bits\nScan type                                : Progressive\nBits/(Pixel*Frame)                       : 0.127\nStream size                              : 392 MiB (89%)\nWriting library                          : x264 core 130 r2273 b3065e6\n\nEncoded date                             : UTC 2014-09-04 12:48:05\nTagged date                              : UTC 2014-09-04 13:28:17\nColor primaries                          : BT.709\nTransfer characteristics                 : BT.709\nMatrix coefficients                      : BT.709\n\nAudio\nID                                       : 2\nFormat                                   : AAC\nFormat/Info                              : Advanced Audio Codec\nFormat profile                           : LC\nCodec ID                                 : 40\nDuration                                 : 42mn 12s\nBit rate mode                            : Variable\nBit rate                                 : 160 Kbps\nMaximum bit rate                         : 342 Kbps\nChannel(s)                               : 2 channels\nChannel positions                        : Front: L R\nSampling rate                            : 48.0 KHz\nCompression mode                         : Lossy\nStream size                              : 48.3 MiB (11%)\nLanguage                                 : English\nEncoded date                             : UTC 2014-09-04 12:48:05\nTagged date                              : UTC 2014-09-04 13:28:16","torrent":{"xt":"urn:btih:4485b74c25c2ff31d782c0a988646b9cd9267249","amp;dn":"Geordie+Shore+S08E07+WEB-DL+","amp;tr":["udp%3A%2F%2Ftracker.openbittorrent.com%3A80","udp%3A%2F%2Fopen.demonii.com%3A1337","udp%3A%2F%2Ftracker.coppersurfer.tk%3A6969","udp%3A%2F%2Fexodus.desync.com%3A6969"],"infoHash":"4485b74c25c2ff31d782c0a988646b9cd9267249","infoHashBuffer":{"type":"Buffer","data":[68,133,183,76,37,194,255,49,215,130,192,169,136,100,107,156,217,38,114,73]},"announce":[],"urlList":[]}}